<svg width="72" height="20" viewBox="0 0 72 20" fill="none" xmlns="http://www.w3.org/2000/svg">
<path d="M39.8601 10.4662C39.8601 12.971 39.2529 15.1136 38.0114 16.8654L38.0115 16.8655C36.7618 18.6566 34.9839 19.5556 32.7349 19.5556C31.0068 19.5555 29.6096 18.9332 28.6033 17.6699L28.602 17.6683L28.6008 17.6668C28.5636 17.6193 28.5273 17.5713 28.4915 17.5228C28.1833 17.8744 27.8351 18.1784 27.4707 18.4351C26.424 19.1724 25.195 19.5555 24.2736 19.5556C23.3831 19.5556 22.6432 19.2477 22.1315 18.5898L22.1255 18.5821L22.1197 18.5741C21.6299 17.8883 21.5182 16.9115 21.6581 15.7524L22.0567 12.363L16.437 12.363L15.6234 18.8453L15.5704 19.2667L13.0413 19.2667L13.108 18.7263L14.6879 5.92149L11.7707 5.92149C12.034 6.3933 12.1704 6.91759 12.1704 7.49094C12.1704 8.59641 11.8345 9.54098 11.137 10.2831C10.7518 10.6931 10.2684 11.0281 9.6965 11.295C10.1086 11.4923 10.4685 11.7501 10.7699 12.0731L10.7698 12.0731C11.4095 12.7376 11.7371 13.5383 11.7371 14.4524C11.7371 16.0423 11.1749 17.3261 10.0237 18.2383L10.0236 18.2382C8.91805 19.1297 7.50447 19.5556 5.82513 19.5556C4.04252 19.5556 2.59255 18.9977 1.54012 17.8378L1.53861 17.8362L1.5372 17.8345C0.496866 16.6668 -0.000176564 15.1273 -0.000177689 13.2681C-0.000177567 10.6663 0.626574 8.44556 1.90815 6.63508L1.90871 6.63424C3.233 4.77196 5.07497 3.83207 7.38498 3.83207C7.79588 3.83207 8.18614 3.85867 8.55423 3.91322C8.88694 3.95679 9.31421 4.02723 9.85297 4.12939C12.2194 4.57811 13.7693 4.52096 14.7579 4.35506C15.2518 4.27218 15.6121 4.16102 15.8709 4.06714C16.0026 4.01938 16.1075 3.97639 16.2027 3.93842C16.2802 3.90747 16.3946 3.86112 16.4977 3.841L16.6864 3.80414L16.8484 3.90729L17.1662 4.10955L17.4229 4.27288L17.3855 4.5749L16.6436 10.5625L22.287 10.5625L23.0158 4.54453L23.067 4.12093L25.5975 4.12093L25.5313 4.66094L24.116 16.2137L24.1161 16.2138C24.0424 16.8309 24.0965 17.2002 24.1927 17.3955C24.2356 17.4826 24.2832 17.5278 24.33 17.5551C24.3795 17.5839 24.4595 17.6106 24.5913 17.6106C24.9154 17.6105 25.6494 17.3935 26.2893 16.9128C26.9137 16.4436 27.3551 15.797 27.2981 14.9768L27.2668 14.5248C27.1825 14.0172 27.1407 13.4824 27.1407 12.9215C27.1407 10.4168 27.7381 8.27431 28.9605 6.52225L28.9615 6.52065L28.9626 6.51914C30.2302 4.73213 32.0057 3.83207 34.237 3.83207C35.9839 3.83207 37.3913 4.46387 38.3976 5.74669L38.4435 5.80509C39.4006 7.03701 39.8601 8.60407 39.8601 10.4662ZM2.23875 11.0792L2.2144 11.2461L2.238 11.0844C2.24227 11.0562 2.24693 11.0283 2.25135 11.0003C2.2472 11.0265 2.24277 11.0528 2.23875 11.0792ZM9.18555 14.5968C9.18554 13.907 8.96158 13.3993 8.5375 13.0206L8.53402 13.0175L8.53054 13.0143C8.1146 12.6281 7.4485 12.3852 6.44863 12.3635C5.38441 12.4689 4.09461 12.5417 2.5813 12.5828C2.5612 12.9481 2.5514 13.2433 2.5514 13.4703C2.5514 14.8194 2.86966 15.8635 3.46367 16.6445C4.04075 17.3845 4.81079 17.755 5.82513 17.755C6.88516 17.755 7.68192 17.4575 8.26763 16.9043L8.26998 16.902L8.27243 16.8999C8.87008 16.3507 9.18554 15.6018 9.18555 14.5968ZM9.61883 7.57763C9.61883 7.02686 9.43529 6.58252 9.0665 6.21374L9.05945 6.20668L9.05268 6.19926C8.73835 5.8576 8.18444 5.63264 7.26942 5.63264C6.03836 5.63264 5.05138 6.12639 4.27261 7.14745C3.55511 8.08817 3.0524 9.287 2.78036 10.7622C4.31434 10.7494 5.53807 10.6834 6.45757 10.5664L6.46058 10.566C7.5953 10.4287 8.37561 10.0931 8.86998 9.61468C9.35346 9.14679 9.61882 8.48849 9.61883 7.57763ZM3.73091 7.07232C3.71865 7.08974 3.70673 7.10741 3.69461 7.12497C3.70752 7.10626 3.72029 7.08748 3.73335 7.06893L3.73091 7.07232ZM4.26527 6.41552C4.26126 6.41971 4.25734 6.42401 4.25333 6.42822C4.25918 6.42207 4.26496 6.41589 4.27082 6.40979L4.26527 6.41552ZM4.54191 6.15017C4.50499 6.18266 4.46854 6.21604 4.43236 6.25013C4.45341 6.23032 4.47454 6.21073 4.49583 6.19145C4.51116 6.17758 4.52655 6.16386 4.542 6.15027L4.54191 6.15017ZM4.9248 5.8506V5.85069V5.8506ZM9.98583 6.80857C9.98388 6.80246 9.98181 6.7964 9.97981 6.79032C9.98783 6.81472 9.99553 6.83928 10.0028 6.86404L9.98583 6.80857ZM11.2263 14.0194C11.223 13.996 11.2195 13.9727 11.2156 13.9494L11.2155 13.9494C11.2194 13.9727 11.223 13.996 11.2263 14.0194ZM16.0122 11.8815L15.1456 18.7853L15.1457 18.7853L16.0123 11.8815L16.0122 11.8815ZM16.59 4.3135L16.9076 4.51566L16.0989 11.0439L16.9077 4.51566L16.59 4.3135ZM25.3607 17.9392C25.3393 17.9465 25.318 17.9534 25.2968 17.9602C25.2756 17.9669 25.2546 17.9734 25.2338 17.9796L25.2339 17.9797C25.2755 17.9673 25.3179 17.9537 25.3608 17.9392L25.3607 17.9392ZM25.7301 17.7942C25.7629 17.7796 25.796 17.7645 25.829 17.7488C25.796 17.7645 25.7629 17.7796 25.7301 17.7942ZM27.6235 13.0902L27.6273 13.2518C27.6274 13.2532 27.6275 13.2545 27.6275 13.2559C27.6258 13.201 27.6243 13.1457 27.6235 13.0902ZM29.0224 17.4227C29.0081 17.4052 28.994 17.3876 28.9798 17.3698C28.9661 17.3523 28.9525 17.3348 28.9389 17.3171C28.9524 17.3348 28.966 17.3523 28.9797 17.3698C28.9939 17.3876 29.0081 17.4052 29.0224 17.4227ZM37.3085 10.1774C37.3085 8.76366 36.9967 7.66602 36.415 6.84486L36.4117 6.84026L36.4085 6.83555C35.8605 6.02184 35.1324 5.63264 34.1792 5.63264C32.7978 5.63265 31.7239 6.28718 30.9303 7.69808L30.9297 7.69921L30.9291 7.70034C30.115 9.12945 29.6923 10.9572 29.6923 13.2104C29.6923 14.6239 29.9946 15.7344 30.5609 16.5772L30.6126 16.6504C31.1527 17.3951 31.8651 17.755 32.7927 17.755C34.1981 17.755 35.2797 17.1053 36.0705 15.7184C36.8859 14.2687 37.3085 12.4302 37.3085 10.1774ZM30.0781 16.7167C30.0873 16.7314 30.0962 16.7462 30.1055 16.7607L30.1073 16.7635C30.0974 16.7481 30.0879 16.7323 30.0781 16.7167ZM32.5531 18.2288C32.5641 18.2295 32.5751 18.2305 32.5861 18.2311L32.5925 18.2313C32.5793 18.2307 32.5662 18.2296 32.5531 18.2288ZM35.1426 17.5144C35.087 17.5545 35.0306 17.593 34.9734 17.6297C35.0497 17.5807 35.1246 17.5287 35.198 17.4737L35.1426 17.5144ZM35.6741 5.50504C35.5947 5.46232 35.5134 5.42343 35.4302 5.38844C35.5139 5.42362 35.5956 5.46279 35.6754 5.50579L35.6741 5.50504ZM36.5864 15.7784C36.5549 15.8377 36.5228 15.8963 36.4901 15.9545C36.4859 15.9619 36.4816 15.9691 36.4774 15.9764C36.4816 15.9691 36.486 15.9619 36.4902 15.9545C36.5229 15.8964 36.555 15.8377 36.5864 15.7784ZM36.7476 6.47946C36.7393 6.46785 36.7307 6.45651 36.7224 6.44505C36.7314 6.4574 36.7406 6.46966 36.7495 6.48219L36.7476 6.47946ZM37.0381 6.92629C37.0322 6.91606 37.026 6.906 37.02 6.89583C37.0304 6.91353 37.0407 6.93129 37.0509 6.94914L37.0381 6.92629ZM37.7277 9.11106C37.7183 9.03504 37.708 8.95991 37.6965 8.88568C37.708 8.95991 37.7183 9.03504 37.7277 9.11106ZM37.7628 9.46142C37.7572 9.38936 37.7507 9.31805 37.7433 9.2475C37.7507 9.31805 37.7572 9.38936 37.7628 9.46142ZM37.787 9.93514C37.7841 9.82011 37.7792 9.70684 37.7722 9.59531C37.7792 9.70684 37.7841 9.82011 37.787 9.93514ZM37.7815 10.7227C37.7826 10.684 37.784 10.6451 37.7849 10.6061L37.785 10.5995C37.7841 10.6407 37.7827 10.6818 37.7815 10.7227ZM37.79 10.1774C37.79 10.0968 37.789 10.0171 37.7871 9.93824C37.789 10.0171 37.7899 10.0968 37.7899 10.1774L37.79 10.1774ZM64.1068 13.8169C64.1068 15.5102 63.5544 16.9144 62.4248 17.98C61.3046 19.0368 59.8915 19.5556 58.2237 19.5556C56.5653 19.5556 55.2558 19.1094 54.4179 18.1131C53.6028 17.1437 53.2812 15.8447 53.381 14.2852C53.3839 14.1597 53.4089 13.8919 53.4482 13.5191C53.4919 13.1059 53.5571 12.529 53.6438 11.7894C53.806 10.4068 54.0439 8.45063 54.3572 5.9215L51.5926 5.9215C51.8559 6.3933 51.9922 6.9176 51.9922 7.49094C51.9922 8.59641 51.6563 9.54099 50.9588 10.2831C50.5736 10.6931 50.0901 11.0281 49.5183 11.295C49.9303 11.4923 50.2903 11.7501 50.5917 12.0731L50.5916 12.0731C51.2313 12.7376 51.5589 13.5383 51.5589 14.4524C51.5589 16.0423 50.9967 17.3261 49.8455 18.2383L49.8454 18.2382C48.7398 19.1297 47.3263 19.5556 45.6469 19.5556C43.8643 19.5556 42.4143 18.9977 41.3619 17.8378L41.3604 17.8362L41.359 17.8345C40.3187 16.6668 39.8216 15.1273 39.8216 13.2681C39.8216 10.6663 40.4484 8.44556 41.7299 6.63508L41.7305 6.63424C43.0548 4.77196 44.8968 3.83207 47.2068 3.83207C47.5687 3.83207 47.9147 3.8526 48.2436 3.89479L48.239 3.8899L48.3072 3.90344C48.5694 3.93954 48.8205 3.9895 49.0601 4.05407L49.6815 4.17838C50.6936 4.3808 52.2652 4.35081 53.6456 4.23687C54.328 4.18054 54.9476 4.10518 55.4058 4.03282C55.6359 3.9965 55.8193 3.96185 55.9471 3.93212C55.9919 3.92169 56.0259 3.91248 56.0506 3.90532L56.2931 3.68482L56.6128 3.93353L56.8728 4.13569L57.0873 4.3025L57.0553 4.57227L56.4542 9.65653C57.2748 9.40985 58.2141 9.29151 59.2637 9.29151C60.6478 9.29152 61.818 9.68615 62.7304 10.5094L62.7736 10.5479C63.6739 11.3635 64.1068 12.4729 64.1068 13.8169ZM42.0605 11.0792L42.0362 11.2461L42.0598 11.0844C42.0641 11.0562 42.0687 11.0283 42.0731 11.0003C42.069 11.0265 42.0646 11.0528 42.0605 11.0792ZM49.0073 14.5968C49.0073 13.907 48.7834 13.3993 48.3593 13.0206L48.3558 13.0175L48.3523 13.0143C47.9364 12.6281 47.2703 12.3852 46.2704 12.3635C45.2062 12.4689 43.9164 12.5417 42.4031 12.5828C42.383 12.9481 42.3732 13.2433 42.3732 13.4703C42.3732 14.8194 42.6914 15.8635 43.2855 16.6445C43.8625 17.3845 44.6326 17.755 45.6469 17.755C46.7069 17.755 47.5037 17.4575 48.0894 16.9043L48.0918 16.9021L48.0942 16.8999C48.6919 16.3507 49.0073 15.6018 49.0073 14.5968ZM49.4406 7.57763C49.4406 7.02686 49.2571 6.58252 48.8883 6.21374L48.8812 6.20669L48.8745 6.19926C48.5601 5.8576 48.0062 5.63264 47.0912 5.63264C45.8602 5.63264 44.8732 6.1264 44.0944 7.14745C43.3769 8.08818 42.8742 9.28701 42.6022 10.7622C44.1361 10.7494 45.3599 10.6834 46.2794 10.5664L46.2824 10.566C47.4171 10.4287 48.1974 10.0931 48.6918 9.61468C49.1753 9.14679 49.4406 8.48849 49.4406 7.57763ZM43.5527 7.07232C43.5404 7.08974 43.5285 7.10741 43.5164 7.12498C43.5293 7.10627 43.5421 7.08748 43.5551 7.06893L43.5527 7.07232ZM44.0871 6.41553C44.083 6.41971 44.0791 6.42401 44.0751 6.42822C44.081 6.42208 44.0867 6.41589 44.0926 6.40979L44.0871 6.41553ZM44.3637 6.15017C44.3268 6.18266 44.2903 6.21604 44.2542 6.25013C44.2752 6.23032 44.2963 6.21073 44.3176 6.19145C44.3329 6.17758 44.3483 6.16386 44.3638 6.15027L44.3637 6.15017ZM48.2289 11.2499C48.1577 11.2693 48.0854 11.288 48.0119 11.306L47.9 11.3328L48.0102 11.3065C48.084 11.2884 48.1566 11.2696 48.228 11.2501L48.2289 11.2499ZM49.1865 5.82888C49.182 5.82435 49.1773 5.82001 49.1728 5.81552C49.1778 5.82046 49.1829 5.8253 49.1878 5.83029L49.1865 5.82888ZM49.8076 6.80857C49.8057 6.80247 49.8036 6.79641 49.8016 6.79033C49.8096 6.81472 49.8173 6.83928 49.8245 6.86405L49.8076 6.80857ZM51.0374 13.9494C51.0365 13.9439 51.0356 13.9383 51.0346 13.9328C51.0364 13.9431 51.038 13.9535 51.0397 13.9638C51.0389 13.959 51.0382 13.9542 51.0374 13.9494ZM53.9899 12.9954C53.9845 13.043 53.9793 13.0893 53.9743 13.1344C53.9793 13.0893 53.9845 13.043 53.9899 12.9954ZM54.2682 10.6137C54.1843 11.313 54.1136 11.9138 54.0557 12.4162C54.1164 11.8892 54.1914 11.2539 54.2807 10.5103L54.2682 10.6137ZM61.5553 13.8169C61.5553 12.9119 61.2973 12.2698 60.8355 11.8233C60.3717 11.375 59.6969 11.1209 58.7437 11.1209C57.9668 11.1209 57.1257 11.2675 56.2177 11.5703C56.1808 11.9277 56.1327 12.3293 56.0734 12.7744C56.0158 13.3312 55.9676 13.7748 55.9288 14.1043L55.9285 14.1077C55.9094 14.2598 55.8955 14.3807 55.8864 14.4714C55.8819 14.5167 55.8787 14.5529 55.8767 14.5806C55.8758 14.5943 55.8751 14.6051 55.8748 14.6133C55.8746 14.6173 55.8744 14.6204 55.8744 14.6226V14.645L55.8728 14.6642C55.781 15.8122 55.9752 16.5688 56.3466 17.033C56.7057 17.4819 57.3106 17.755 58.2815 17.755C59.2835 17.755 60.0474 17.3982 60.6234 16.6905L60.6255 16.6879L60.6277 16.6853C61.2349 15.96 61.5553 15.0171 61.5553 13.8169ZM58.0648 18.2319C58.072 18.2322 58.0791 18.2327 58.0863 18.2329L58.0878 18.2329C58.0801 18.2327 58.0725 18.2322 58.0648 18.2319ZM64.835 5.3387L63.7346 8.46725L62.6198 5.34378L59.4911 4.24345L62.6146 3.12854L63.715 -3.39951e-07L64.8298 3.12347L71.4922 4.24336L64.835 5.3387ZM61.1152 11.4256C61.1049 11.4162 61.0945 11.4071 61.0841 11.3979C61.0951 11.4076 61.1061 11.4173 61.117 11.4273L61.1152 11.4256Z" fill="white"/>
</svg>
