<svg width="81" height="22" viewBox="0 0 81 22" fill="none" xmlns="http://www.w3.org/2000/svg">
<path d="M44.8426 11.7745C44.8426 14.5924 44.1595 17.0028 42.7628 18.9736L42.7629 18.9737C41.3571 20.9886 39.3569 22 36.8268 22C34.8826 22 33.3109 21.2999 32.1787 19.8786L32.1773 19.8768L32.1759 19.8751C32.1341 19.8217 32.0932 19.7677 32.053 19.7132C31.7062 20.1086 31.3145 20.4507 30.9045 20.7395C29.7269 21.569 28.3444 22 27.3078 22C26.306 22 25.4736 21.6536 24.8979 20.9135L24.8912 20.9048L24.8847 20.8958C24.3337 20.1244 24.2079 19.0254 24.3653 17.7214L24.8138 13.9083L18.4916 13.9083L17.5763 21.2009L17.5167 21.675L14.6715 21.675L14.7465 21.0671L16.5238 6.66168L13.242 6.66168C13.5383 7.19246 13.6917 7.78229 13.6917 8.4273C13.6917 9.67096 13.3139 10.7336 12.5292 11.5685C12.0957 12.0297 11.5519 12.4066 10.9086 12.7069C11.3721 12.9288 11.777 13.2188 12.1162 13.5822L12.1161 13.5822C12.8357 14.3298 13.2043 15.2306 13.2043 16.2589C13.2043 18.0476 12.5717 19.4918 11.2767 20.5181L11.2766 20.518C10.0328 21.5209 8.44252 22 6.55327 22C4.54784 22 2.91662 21.3724 1.73263 20.0676L1.73094 20.0658L1.72935 20.0639C0.558975 18.7502 -0.000197251 17.0182 -0.000198517 14.9266C-0.000198379 11.9995 0.704897 9.50125 2.14667 7.46447L2.1473 7.46351C3.63712 5.36845 5.70934 4.31108 8.3081 4.31108C8.77037 4.31108 9.2094 4.341 9.62351 4.40237C9.99781 4.45139 10.4785 4.53063 11.0846 4.64556C13.7468 5.15037 15.4904 5.08608 16.6027 4.89944C17.1583 4.8062 17.5636 4.68114 17.8548 4.57553C18.0029 4.5218 18.121 4.47344 18.228 4.43072C18.3152 4.3959 18.444 4.34376 18.56 4.32113L18.7722 4.27966L18.9544 4.3957L19.312 4.62324L19.6008 4.80699L19.5586 5.14676L18.724 11.8828L25.0729 11.8828L25.8927 5.11259L25.9504 4.63604L28.7972 4.63604L28.7227 5.24355L27.1305 18.2404L27.1306 18.2405C27.0477 18.9348 27.1086 19.3503 27.2168 19.57C27.2651 19.6679 27.3186 19.7188 27.3713 19.7495C27.427 19.7819 27.5169 19.8119 27.6652 19.8119C28.0298 19.8119 28.8555 19.5677 29.5755 19.0269C30.2779 18.4991 30.7745 17.7717 30.7104 16.8489L30.6752 16.3404C30.5803 15.7693 30.5333 15.1677 30.5333 14.5367C30.5333 11.7189 31.2054 9.3086 32.5805 7.33753L32.5817 7.33573L32.583 7.33404C34.0089 5.32364 36.0064 4.31108 38.5167 4.31108C40.4819 4.31108 42.0652 5.02185 43.1973 6.46503L43.249 6.53072C44.3257 7.91664 44.8426 9.67958 44.8426 11.7745ZM2.5186 12.4641L2.4912 12.6519L2.51775 12.4699C2.52256 12.4383 2.5278 12.4068 2.53277 12.3753C2.5281 12.4049 2.52312 12.4344 2.5186 12.4641ZM10.3337 16.4214C10.3337 15.6454 10.0818 15.0742 9.60468 14.6482L9.60077 14.6447L9.59686 14.6411C9.12893 14.2066 8.37956 13.9334 7.25472 13.909C6.05746 14.0275 4.60644 14.1094 2.90397 14.1557C2.88136 14.5667 2.87033 14.8987 2.87033 15.154C2.87033 16.6719 3.22837 17.8464 3.89663 18.7251C4.54585 19.5576 5.41214 19.9744 6.55327 19.9744C7.7458 19.9744 8.64217 19.6397 9.30109 19.0173L9.30373 19.0148L9.30648 19.0124C9.97884 18.3945 10.3337 17.552 10.3337 16.4214ZM10.8212 8.52484C10.8212 7.90522 10.6147 7.40534 10.1998 6.99045L10.1919 6.98252L10.1843 6.97416C9.83064 6.5898 9.20749 6.33671 8.17809 6.33671C6.79316 6.33671 5.6828 6.89219 4.80669 8.04088C3.9995 9.0992 3.43395 10.4479 3.12791 12.1075C4.85364 12.093 6.23033 12.0188 7.26476 11.8871L7.26815 11.8867C8.54471 11.7323 9.42256 11.3547 9.97873 10.8165C10.5226 10.2901 10.8212 9.54955 10.8212 8.52484ZM4.19727 7.95636C4.18348 7.97595 4.17007 7.99584 4.15644 8.0156C4.17096 7.99455 4.18532 7.97342 4.20002 7.95255L4.19727 7.95636ZM4.79843 7.21746C4.79391 7.22218 4.78951 7.22701 4.785 7.23174C4.79157 7.22483 4.79808 7.21787 4.80468 7.21101L4.79843 7.21746ZM5.10965 6.91894C5.06812 6.95549 5.02711 6.99304 4.98641 7.03139C5.01009 7.00911 5.03386 6.98707 5.05781 6.96538C5.07505 6.94978 5.09237 6.93434 5.10975 6.91905L5.10965 6.91894ZM5.5404 6.58192V6.58203V6.58192ZM11.2341 7.65964C11.2319 7.65277 11.2295 7.64595 11.2273 7.63911C11.2363 7.66656 11.245 7.69419 11.2531 7.72205L11.2341 7.65964ZM12.6295 15.7718C12.6259 15.7455 12.6219 15.7192 12.6176 15.6931L12.6175 15.6931C12.6218 15.7192 12.6259 15.7455 12.6295 15.7718ZM18.0137 13.3667L17.0388 21.1334L17.0389 21.1334L18.0138 13.3667L18.0137 13.3667ZM18.6637 4.85269L19.0211 5.08012L18.1112 12.4244L19.0212 5.08012L18.6637 4.85269ZM28.5308 20.1816C28.5067 20.1898 28.4827 20.1976 28.4589 20.2052C28.4351 20.2128 28.4115 20.2201 28.388 20.2271L28.3881 20.2272C28.435 20.2132 28.4826 20.1979 28.531 20.1816L28.5308 20.1816ZM28.9464 20.0185C28.9833 20.002 29.0204 19.9851 29.0576 19.9674C29.0204 19.9851 28.9833 20.002 28.9464 20.0185ZM31.0764 14.7265L31.0807 14.9083C31.0808 14.9098 31.0809 14.9113 31.081 14.9129C31.079 14.8511 31.0774 14.789 31.0764 14.7265ZM32.6502 19.6005C32.6342 19.5809 32.6182 19.561 32.6023 19.5411C32.5869 19.5214 32.5715 19.5016 32.5563 19.4817C32.5715 19.5016 32.5868 19.5214 32.6022 19.5411C32.6181 19.5611 32.6341 19.5809 32.6502 19.6005ZM41.9721 11.4495C41.9721 9.85912 41.6213 8.62428 40.9669 7.70047L40.9632 7.69529L40.9596 7.69C40.3431 6.77456 39.524 6.33672 38.4516 6.33672C36.8976 6.33673 35.6894 7.07308 34.7966 8.66034L34.7959 8.66161L34.7952 8.66288C33.8794 10.2706 33.4038 12.3268 33.4038 14.8617C33.4038 16.4519 33.744 17.7012 34.381 18.6493L34.4391 18.7317C35.0468 19.5695 35.8482 19.9744 36.8918 19.9744C38.4729 19.9744 39.6897 19.2435 40.5793 17.6832C41.4967 16.0523 41.972 13.984 41.9721 11.4495ZM33.8379 18.8063C33.8482 18.8228 33.8582 18.8395 33.8687 18.8558L33.8708 18.859C33.8596 18.8416 33.8489 18.8239 33.8379 18.8063ZM36.6222 20.5074C36.6346 20.5082 36.647 20.5093 36.6594 20.5099L36.6666 20.5103C36.6518 20.5095 36.637 20.5083 36.6222 20.5074ZM39.5354 19.7037C39.4729 19.7488 39.4094 19.7921 39.345 19.8335C39.4309 19.7783 39.5151 19.7198 39.5978 19.658L39.5354 19.7037ZM40.1333 6.19317C40.0441 6.14511 39.9526 6.10135 39.8589 6.062C39.9532 6.10157 40.0451 6.14564 40.1348 6.19401L40.1333 6.19317ZM41.1597 17.7507C41.1243 17.8174 41.0881 17.8834 41.0513 17.9488C41.0466 17.9571 41.0418 17.9653 41.037 17.9735C41.0418 17.9652 41.0467 17.9571 41.0514 17.9488C41.0882 17.8834 41.1243 17.8174 41.1597 17.7507ZM41.3411 7.2894C41.3318 7.27633 41.3221 7.26358 41.3127 7.25068C41.3228 7.26458 41.3332 7.27837 41.3432 7.29247L41.3411 7.2894ZM41.6678 7.79208C41.6612 7.78056 41.6542 7.76925 41.6475 7.7578C41.6592 7.77772 41.6708 7.7977 41.6823 7.81778L41.6678 7.79208ZM42.4436 10.2499C42.4331 10.1644 42.4215 10.0799 42.4086 9.99638C42.4215 10.0799 42.4331 10.1644 42.4436 10.2499ZM42.4832 10.6441C42.4768 10.563 42.4695 10.4828 42.4612 10.4034C42.4695 10.4828 42.4768 10.563 42.4832 10.6441ZM42.5104 11.177C42.5072 11.0476 42.5016 10.9202 42.4938 10.7947C42.5016 10.9202 42.5072 11.0476 42.5104 11.177ZM42.5041 12.0631C42.5055 12.0195 42.507 11.9758 42.5081 11.9319L42.5082 11.9244C42.5071 11.9708 42.5056 12.017 42.5041 12.0631ZM42.5138 11.4495C42.5138 11.3589 42.5127 11.2693 42.5105 11.1805C42.5127 11.2693 42.5137 11.3589 42.5137 11.4495L42.5138 11.4495ZM72.1202 15.5441C72.1202 17.449 71.4987 19.0286 70.228 20.2275C68.9677 21.4164 67.3779 22 65.5017 22C63.636 22 62.1627 21.4981 61.2201 20.3772C60.3031 19.2867 59.9414 17.8253 60.0536 16.0709C60.0569 15.9296 60.085 15.6284 60.1293 15.2089C60.1783 14.7441 60.2517 14.0951 60.3493 13.2631C60.5317 11.7076 60.7994 9.50696 61.1519 6.66168L58.0416 6.66168C58.3378 7.19246 58.4912 7.7823 58.4912 8.42731C58.4912 9.67096 58.1134 10.7336 57.3287 11.5685C56.8952 12.0297 56.3514 12.4066 55.7081 12.7069C56.1716 12.9288 56.5765 13.2188 56.9157 13.5822L56.9156 13.5822C57.6352 14.3298 58.0038 15.2306 58.0038 16.2589C58.0038 18.0476 57.3712 19.4918 56.0762 20.5181L56.0761 20.518C54.8323 21.5209 53.242 22 51.3528 22C49.3474 22 47.7161 21.3724 46.5321 20.0676L46.5305 20.0658L46.5289 20.0639C45.3585 18.7502 44.7993 17.0182 44.7993 14.9266C44.7993 11.9995 45.5044 9.50126 46.9462 7.46447L46.9468 7.46352C48.4366 5.36846 50.5088 4.31108 53.1076 4.31108C53.5148 4.31108 53.9041 4.33417 54.2741 4.38164L54.2689 4.37613L54.3456 4.39137C54.6405 4.43198 54.9231 4.48818 55.1926 4.56083L55.8917 4.70068C57.0303 4.9284 58.7983 4.89466 60.3513 4.76647C61.119 4.70311 61.816 4.61833 62.3316 4.53693C62.5904 4.49606 62.7967 4.45708 62.9405 4.42363C62.9909 4.41191 63.0292 4.40154 63.0569 4.39348L63.3297 4.14542L63.6894 4.42522L63.9819 4.65265L64.2232 4.84031L64.1872 5.1438L63.5109 10.8636C64.4342 10.5861 65.4909 10.4529 66.6716 10.4529C68.2287 10.453 69.5453 10.8969 70.5717 11.823L70.6203 11.8664C71.6332 12.7839 72.1202 14.032 72.1202 15.5441ZM47.3181 12.4641L47.2907 12.6519L47.3173 12.4699C47.3221 12.4383 47.3273 12.4068 47.3323 12.3753C47.3276 12.4049 47.3226 12.4344 47.3181 12.4641ZM55.1333 16.4214C55.1332 15.6454 54.8813 15.0742 54.4042 14.6482L54.4003 14.6447L54.3964 14.6411C53.9284 14.2066 53.1791 13.9334 52.0542 13.909C50.857 14.0275 49.4059 14.1095 47.7035 14.1557C47.6809 14.5667 47.6698 14.8987 47.6698 15.154C47.6698 16.6719 48.0279 17.8464 48.6961 18.7251C49.3454 19.5576 50.2117 19.9744 51.3528 19.9744C52.5453 19.9744 53.4417 19.6397 54.1006 19.0173L54.1032 19.0148L54.106 19.0124C54.7784 18.3945 55.1333 17.552 55.1333 16.4214ZM55.6207 8.52484C55.6207 7.90522 55.4142 7.40534 54.9993 6.99046L54.9914 6.98252L54.9838 6.97416C54.6302 6.5898 54.007 6.33672 52.9776 6.33672C51.5927 6.33672 50.4823 6.8922 49.6062 8.04088C48.799 9.0992 48.2335 10.4479 47.9274 12.1075C49.6531 12.093 51.0298 12.0188 52.0643 11.8871L52.0677 11.8867C53.3442 11.7323 54.2221 11.3547 54.7782 10.8165C55.3222 10.2901 55.6207 9.54955 55.6207 8.52484ZM48.9968 7.95636C48.983 7.97596 48.9696 7.99584 48.9559 8.0156C48.9705 7.99455 48.9848 7.97342 48.9995 7.95255L48.9968 7.95636ZM49.5979 7.21747C49.5934 7.22218 49.589 7.22701 49.5845 7.23175C49.5911 7.22484 49.5976 7.21787 49.6042 7.21101L49.5979 7.21747ZM49.9092 6.91895C49.8676 6.95549 49.8266 6.99304 49.7859 7.03139C49.8096 7.00911 49.8334 6.98707 49.8573 6.96538C49.8746 6.94978 49.8919 6.93435 49.9093 6.91905L49.9092 6.91895ZM54.2575 12.6561C54.1774 12.6779 54.0961 12.699 54.0134 12.7192L53.8876 12.7494L54.0115 12.7198C54.0945 12.6994 54.1762 12.6783 54.2565 12.6564L54.2575 12.6561ZM55.3348 6.55749C55.3297 6.55239 55.3245 6.54751 55.3194 6.54246C55.325 6.54802 55.3307 6.55346 55.3362 6.55907L55.3348 6.55749ZM56.0336 7.65964C56.0314 7.65277 56.029 7.64596 56.0268 7.63912C56.0358 7.66656 56.0445 7.69419 56.0526 7.72205L56.0336 7.65964ZM57.4171 15.6931C57.4161 15.6869 57.415 15.6806 57.4139 15.6744C57.4159 15.686 57.4178 15.6976 57.4196 15.7093C57.4188 15.7039 57.418 15.6985 57.4171 15.6931ZM60.7386 14.6198C60.7326 14.6734 60.7268 14.7255 60.7211 14.7762C60.7268 14.7255 60.7326 14.6734 60.7386 14.6198ZM61.0517 11.9404C60.9574 12.7271 60.8778 13.403 60.8126 13.9682C60.881 13.3754 60.9653 12.6607 61.0658 11.8241L61.0517 11.9404ZM69.2497 15.5441C69.2497 14.5259 68.9595 13.8035 68.4399 13.3013C67.9181 12.7969 67.159 12.5111 66.0867 12.5111C65.2127 12.5111 64.2664 12.676 63.2449 13.0166C63.2034 13.4187 63.1493 13.8704 63.0826 14.3713C63.0178 14.9976 62.9635 15.4966 62.9199 15.8673L62.9195 15.8711C62.8981 16.0423 62.8824 16.1783 62.8722 16.2803C62.8671 16.3313 62.8636 16.372 62.8613 16.4031C62.8602 16.4186 62.8595 16.4308 62.8591 16.4399C62.8589 16.4445 62.8588 16.4479 62.8587 16.4504V16.4756L62.8569 16.4972C62.7536 17.7887 62.9721 18.6399 63.3899 19.1622C63.7939 19.6671 64.4744 19.9744 65.5667 19.9744C66.694 19.9744 67.5533 19.573 68.2014 18.7768L68.2037 18.7738L68.2061 18.771C68.8892 17.955 69.2497 16.8943 69.2497 15.5441ZM65.3229 20.5109C65.331 20.5112 65.339 20.5118 65.3471 20.5121L65.3488 20.5121C65.3402 20.5117 65.3315 20.5112 65.3229 20.5109ZM72.9394 6.00604L71.7014 9.52565L70.4472 6.01175L66.9275 4.77388L70.4414 3.51961L71.6794 -3.82444e-07L72.9336 3.5139L80.4287 4.77377L72.9394 6.00604ZM68.7546 12.8538C68.7431 12.8432 68.7313 12.8329 68.7196 12.8226C68.732 12.8336 68.7444 12.8445 68.7566 12.8557L68.7546 12.8538Z" fill="#170736"/>
</svg>
